<svg width="25" height="22" viewBox="0 0 25 22" fill="none" xmlns="http://www.w3.org/2000/svg">
<path d="M7.54743 15.4261C7.74128 15.1677 7.87051 14.9738 8.06435 14.7154C8.19358 14.5861 8.2582 14.4569 8.38743 14.3277C8.51666 14.1338 8.64589 13.94 8.77512 13.7461C8.90435 13.5523 9.03358 13.4231 9.16281 13.2292C9.35666 12.9708 9.55051 12.6477 9.80897 12.3892C9.9382 12.1954 10.0674 12.0661 10.1967 11.8723C10.2613 11.7431 10.3905 11.6138 10.4551 11.4846C10.5844 11.3554 10.649 11.1615 10.649 10.9677C10.649 10.7738 10.649 10.5154 10.5197 10.3215C10.3905 10.1277 10.2613 9.93384 10.132 9.73999C9.9382 9.48153 9.80897 9.28768 9.61512 9.02922C9.48589 8.89999 9.42128 8.77076 9.29205 8.64153C9.16281 8.44768 9.03358 8.25384 8.90435 8.05999C8.83974 7.93076 8.71051 7.80153 8.64589 7.6723C8.51666 7.47845 8.38743 7.2846 8.2582 7.09076C8.12897 6.89691 7.99974 6.76768 7.87051 6.57384C7.61204 6.50922 7.48281 6.31537 7.35358 6.12153C7.22435 5.9923 7.15974 5.86307 7.03051 5.73384C6.70743 5.6046 6.38435 5.66922 6.19051 5.92768C6.06128 6.12153 5.93204 6.31537 5.80281 6.57384C5.67358 6.76768 5.54435 7.02614 5.41512 7.21999C5.28589 7.47845 5.09204 7.73691 4.96281 8.05999C4.8982 8.1246 4.83358 8.25384 4.83358 8.31845C4.76897 8.44768 4.63974 8.64153 4.57512 8.77076C4.51051 8.89999 4.44589 8.96461 4.38127 9.09384C4.25204 9.3523 4.12281 9.54614 3.99358 9.80461C3.86435 9.99845 3.79974 10.1277 3.67051 10.3215C3.54127 10.5154 3.41204 10.7738 3.47666 11.0323C3.47666 11.2908 3.54127 11.4846 3.67051 11.6785C3.73512 11.7431 3.73512 11.8077 3.79974 11.9369C3.86435 12.1308 3.99358 12.26 4.0582 12.4538C4.12281 12.5831 4.25204 12.7769 4.38127 12.9708C4.44589 13.0354 4.51051 13.1646 4.51051 13.2292C4.63974 13.4231 4.70435 13.5523 4.83358 13.7461C4.8982 13.8754 4.8982 13.94 4.96281 14.0692C5.09204 14.3277 5.22127 14.5215 5.35051 14.78C5.41512 14.9092 5.47974 14.9738 5.54435 15.1031C5.67358 15.3615 5.80281 15.5554 5.93204 15.8138C5.99666 15.9431 6.12589 16.1369 6.25512 16.2015C6.38435 16.2661 6.5782 16.3308 6.77204 16.2661C6.96589 16.2015 7.03051 16.0723 7.15974 15.9431C7.28897 15.8138 7.4182 15.62 7.54743 15.4261Z" fill="#AF38F6"/>
<path d="M20.0827 13.6169C20.1473 13.4877 20.2765 13.2938 20.3411 13.1646C20.4057 13.0354 20.4704 12.9708 20.535 12.8415C20.6642 12.5831 20.7934 12.3892 20.9227 12.1308C20.9873 12.0015 21.1165 11.8077 21.1811 11.6785C21.3104 11.4846 21.375 11.2261 21.375 11.0323C21.375 10.9677 21.375 10.9031 21.375 10.8385C21.375 10.7738 21.375 10.6446 21.3104 10.58C21.1811 10.3215 21.0519 10.1277 20.9227 9.86922C20.7934 9.67537 20.7288 9.54614 20.5996 9.3523C20.535 9.15845 20.4057 9.02922 20.3411 8.83537C20.2765 8.64153 20.1473 8.5123 20.018 8.31845C19.8888 8.1246 19.8242 7.99537 19.695 7.80153C19.5011 7.47845 19.3719 7.21999 19.178 6.96153C19.0488 6.70307 18.9196 6.4446 18.7257 6.18614C18.6611 6.05691 18.5965 5.92768 18.4673 5.86307C18.338 5.73384 18.2088 5.66922 18.0796 5.66922C17.9503 5.66922 17.8211 5.73384 17.6919 5.79845C17.498 5.9923 17.3688 6.25076 17.175 6.4446C17.175 6.70307 17.1103 6.8323 17.0457 6.96153C16.9165 7.09076 16.8519 7.2846 16.7227 7.41384C16.658 7.54307 16.5288 7.6723 16.4642 7.80153C16.335 7.93076 16.2703 8.1246 16.1411 8.25384C16.0765 8.38307 15.9473 8.5123 15.8827 8.64153C15.7534 8.77076 15.6888 8.9646 15.5596 9.09384C15.495 9.22307 15.3657 9.3523 15.3011 9.48153C15.1719 9.61076 15.1073 9.80461 14.978 9.93384C14.8488 10.0631 14.7842 10.1923 14.7196 10.3215C14.5903 10.5154 14.4611 10.7092 14.5257 10.9677C14.5257 11.1615 14.5903 11.2908 14.655 11.4846C14.7842 11.6785 14.9134 11.8723 15.1073 12.0661C15.2365 12.26 15.3657 12.4538 15.495 12.6477C15.5596 12.7769 15.6888 12.9061 15.7534 13.0354C15.8827 13.2292 16.0119 13.4231 16.1411 13.6169C16.2703 13.8108 16.4642 14.0692 16.5934 14.2631C16.7873 14.5215 17.0457 14.8446 17.2396 15.1031C17.3688 15.2323 17.498 15.4261 17.5627 15.5554C17.6919 15.6846 17.7565 15.8785 17.8857 16.0077C18.0796 16.1369 18.2088 16.2661 18.4673 16.2015C18.5965 16.1369 18.7257 16.0723 18.7903 15.9431C18.855 15.8138 18.9196 15.6846 18.9842 15.62C19.1134 15.4261 19.178 15.2323 19.3073 15.1031C19.3719 14.9738 19.4365 14.9092 19.5011 14.78C19.6303 14.5215 19.7596 14.3277 19.8888 14.0692C19.9534 13.8754 20.018 13.7461 20.0827 13.6169Z" fill="#AF38F6"/>
<path d="M13.1041 13.94C13.0395 13.8754 13.0395 13.8108 12.9749 13.7461C12.8457 13.6169 12.7811 13.4877 12.6518 13.3584C12.5872 13.2938 12.5872 13.2938 12.5226 13.2292C12.458 13.1646 12.3934 13.1646 12.3934 13.2292L12.3287 13.2938C12.2641 13.4231 12.1995 13.4877 12.0703 13.6169C11.8764 13.8754 11.6826 14.1338 11.4887 14.3923C11.3595 14.5861 11.2303 14.7154 11.1011 14.9092C11.0364 15.0384 10.9718 15.1031 10.8426 15.2323C10.7134 15.4261 10.5841 15.62 10.4549 15.8138C10.3257 16.0077 10.1964 16.1369 10.0672 16.3308C9.80875 16.6538 9.6149 16.9769 9.35644 17.3C9.16259 17.5584 8.96875 17.8169 8.7749 18.14C8.7749 18.2046 8.7749 18.2692 8.7749 18.3338C8.7749 18.3984 8.83952 18.5277 8.83952 18.5923C8.96875 18.7861 9.09798 18.9154 9.35644 18.9154C10.3903 18.9154 11.4241 18.9154 12.5226 18.9154C13.5564 18.9154 14.6549 18.9154 15.6887 18.9154C15.818 18.9154 15.9472 18.8508 16.0118 18.7861C16.1411 18.7215 16.2057 18.5923 16.2703 18.4631C16.3349 18.3338 16.3349 18.2692 16.2057 18.14C16.1411 18.0754 16.0764 17.9461 16.0118 17.8815C15.8826 17.6877 15.7534 17.4938 15.6241 17.3C15.4303 17.0415 15.2364 16.7184 14.978 16.46C14.7195 16.1369 14.5257 15.8138 14.2672 15.4908C14.0734 15.2323 13.9441 15.0384 13.7503 14.78C13.5564 14.5215 13.298 14.2631 13.1041 13.94Z" fill="#AF38F6"/>
<path d="M15.1073 5.28154C15.2365 5.08769 15.4304 4.82923 15.6242 4.63539C15.7534 4.44154 15.9473 4.18308 16.0765 3.98923C16.1411 3.86 16.2057 3.73077 16.1411 3.60154C16.1411 3.53692 16.0765 3.47231 16.0119 3.40769C16.0119 3.34308 15.9473 3.34308 15.9473 3.27846C15.818 3.14923 15.6888 3.14923 15.495 3.14923C14.5257 3.14923 13.5565 3.14923 12.5227 3.14923C11.4888 3.14923 10.5842 3.14923 9.55036 3.14923C9.48574 3.14923 9.42112 3.14923 9.35651 3.14923C9.16266 3.14923 9.03343 3.27846 8.9042 3.47231C8.83959 3.60154 8.77497 3.73077 8.9042 3.86C8.96882 3.92462 9.03343 4.05385 9.09805 4.11846C9.22728 4.31231 9.35651 4.50615 9.48574 4.7C9.61497 4.89385 9.80882 5.15231 9.93805 5.34615C10.0673 5.54 10.2611 5.79846 10.455 5.99231C10.5842 6.18615 10.7134 6.31539 10.8427 6.50923C10.9719 6.70308 11.1657 6.96154 11.295 7.15539C11.3596 7.28462 11.4888 7.41385 11.5534 7.47846C11.7473 7.73692 11.8765 7.93077 12.0704 8.18923C12.1996 8.31846 12.3288 8.51231 12.3934 8.64154C12.458 8.70615 12.5227 8.70615 12.5227 8.64154C12.6519 8.51231 12.7165 8.44769 12.8457 8.31846C13.0396 8.12462 13.1688 7.86616 13.3627 7.67231C13.5565 7.41385 13.7504 7.15539 13.8796 6.89692C14.0088 6.76769 14.0734 6.57385 14.2027 6.44462C14.3965 6.18615 14.5257 5.99231 14.7196 5.73385C14.8488 5.60462 14.978 5.41077 15.1073 5.28154Z" fill="#AF38F6"/>
<path d="M19.695 3.66614C19.695 3.73075 19.695 3.79537 19.7596 3.79537C20.8581 6.12152 21.9565 8.51229 23.055 10.8384C23.1196 10.9031 23.1196 10.9677 23.055 11.0969C22.6027 12.0015 22.215 12.9061 21.7627 13.8108C21.0519 15.2969 20.4058 16.7831 19.695 18.2046C19.695 18.2692 19.6304 18.2692 19.6304 18.3338C21.2458 15.8784 22.7965 13.4231 24.4119 10.9677C22.8611 8.51229 21.2458 6.05691 19.695 3.66614Z" fill="#AF38F6"/>
<path d="M1.79654 11.1615C1.73192 11.0969 1.73192 11.0323 1.79654 10.9677C2.895 8.5123 4.05808 6.12153 5.15654 3.73076C5.15654 3.66615 5.15654 3.66615 5.22116 3.60153C3.54115 6.12153 1.99039 8.57692 0.375 11.0323C1.99039 13.4877 3.54115 15.8785 5.15654 18.3338C5.15654 18.2692 5.15654 18.2692 5.15654 18.2046C3.99346 15.8785 2.895 13.4877 1.79654 11.1615Z" fill="#AF38F6"/>
<path d="M17.1104 20.7246C16.4642 20.66 15.7535 20.5308 15.1073 20.4662C14.3319 20.4015 13.5565 20.2723 12.7812 20.2077C12.7165 20.2077 12.6519 20.2077 12.5873 20.2077C12.3289 20.2077 12.0058 20.2723 11.7473 20.3369C11.0365 20.4015 10.3258 20.5308 9.61501 20.5954C8.83963 20.66 8.06424 20.7892 7.28886 20.8539H7.22424H7.28886C7.61193 20.9185 7.93501 20.9185 8.19347 20.9831C8.90424 21.0477 9.61501 21.1769 10.3258 21.2415C10.9719 21.3062 11.5535 21.3708 12.1996 21.4354C12.3935 21.4354 12.5873 21.5 12.7812 21.5C13.6212 21.3708 14.3965 21.3062 15.2365 21.1769C16.1412 21.0477 16.9812 20.9831 17.8858 20.8539H17.9504C17.8858 20.8539 17.8858 20.7892 17.8212 20.7892C17.5627 20.7892 17.3689 20.7892 17.1104 20.7246Z" fill="#AF38F6"/>
<path d="M7.2242 1.21077C7.99959 1.27538 8.71036 1.40462 9.48574 1.46923C10.3257 1.59846 11.2304 1.66308 12.0704 1.79231C12.2642 1.79231 12.3934 1.79231 12.5873 1.79231C13.0396 1.72769 13.4919 1.66308 13.9442 1.66308C14.5257 1.59846 15.1719 1.53385 15.7534 1.46923C16.4642 1.40462 17.1104 1.34 17.8211 1.21077C17.8857 1.21077 17.8857 1.21077 17.9504 1.21077C17.8211 1.14615 17.7565 1.14615 17.6919 1.08154C16.9165 1.01692 16.1411 0.887692 15.3657 0.823077C14.5257 0.693846 13.6857 0.629231 12.8457 0.5C12.6519 0.5 12.458 0.5 12.2642 0.5C11.4888 0.629231 10.7134 0.693846 9.93805 0.758462C9.03343 0.887692 8.0642 1.01692 7.2242 1.21077C7.15959 1.14615 7.15959 1.14615 7.09497 1.14615C7.15959 1.14615 7.15959 1.21077 7.2242 1.21077Z" fill="#AF38F6"/>
</svg>
