<svg width="11" height="18" viewBox="0 0 11 18" fill="none" xmlns="http://www.w3.org/2000/svg">
<path fill-rule="evenodd" clip-rule="evenodd" d="M5.33223 0.174127C5.29231 0.269872 4.08609 2.29976 2.65174 4.685C1.21739 7.0702 0.031897 9.05303 0.0172297 9.09131C-0.00181819 9.14108 0.777422 9.62691 2.74959 10.7948L5.50868 12.4286L8.26698 10.7939C10.2486 9.61946 11.0177 9.1394 10.9985 9.08909C10.8988 8.82873 5.53511 0 5.47659 0C5.43711 0 5.37214 0.0783325 5.33223 0.174127ZM0.0237758 10.2663C0.13009 10.4485 5.48589 18.0007 5.50828 18C5.5453 17.9989 11.021 10.2439 10.9999 10.2227C10.9799 10.2027 5.86163 13.2238 5.64812 13.3816L5.51724 13.4784L2.86722 11.9104C1.40969 11.048 0.163362 10.3076 0.0976048 10.2651C-0.0114159 10.1947 -0.0179621 10.1948 0.0237758 10.2663Z" fill="#8670FA"/>
</svg>
