<svg width="188" height="40" viewBox="0 0 188 40" fill="none" xmlns="http://www.w3.org/2000/svg">
<path d="M13.6616 28.4307C14.0308 27.9384 14.277 27.5692 14.6462 27.0769C14.8924 26.8307 15.0154 26.5846 15.2616 26.3384C15.5077 25.9692 15.7539 25.6 16 25.2307C16.2462 24.8615 16.4924 24.6154 16.7385 24.2461C17.1077 23.7538 17.477 23.1384 17.9693 22.6461C18.2154 22.2769 18.4616 22.0307 18.7077 21.6615C18.8308 21.4154 19.077 21.1692 19.2 20.9231C19.4462 20.6769 19.5693 20.3077 19.5693 19.9384C19.5693 19.5692 19.5693 19.0769 19.3231 18.7077C19.077 18.3384 18.8308 17.9692 18.5847 17.6C18.2154 17.1077 17.9693 16.7384 17.6 16.2461C17.3539 16 17.2308 15.7538 16.9847 15.5077C16.7385 15.1384 16.4924 14.7692 16.2462 14.4C16.1231 14.1538 15.877 13.9077 15.7539 13.6615C15.5077 13.2923 15.2616 12.9231 15.0154 12.5538C14.7693 12.1846 14.5231 11.9384 14.277 11.5692C13.7847 11.4461 13.5385 11.0769 13.2924 10.7077C13.0462 10.4615 12.9231 10.2154 12.677 9.96921C12.0616 9.72305 11.4462 9.84613 11.077 10.3384C10.8308 10.7077 10.5847 11.0769 10.3385 11.5692C10.0924 11.9384 9.8462 12.4307 9.60004 12.8C9.35389 13.2923 8.98466 13.7846 8.73851 14.4C8.61543 14.5231 8.49235 14.7692 8.49235 14.8923C8.36928 15.1384 8.12312 15.5077 8.00004 15.7538C7.87697 16 7.75389 16.1231 7.63081 16.3692C7.38466 16.8615 7.13851 17.2307 6.89235 17.7231C6.6462 18.0923 6.52312 18.3384 6.27697 18.7077C6.03081 19.0769 5.78466 19.5692 5.90774 20.0615C5.90774 20.5538 6.03081 20.9231 6.27697 21.2923C6.40004 21.4154 6.40004 21.5384 6.52312 21.7846C6.6462 22.1538 6.89235 22.4 7.01543 22.7692C7.13851 23.0154 7.38466 23.3846 7.63081 23.7538C7.75389 23.8769 7.87697 24.1231 7.87697 24.2461C8.12312 24.6154 8.2462 24.8615 8.49235 25.2307C8.61543 25.4769 8.61543 25.6 8.73851 25.8461C8.98466 26.3384 9.23081 26.7077 9.47697 27.2C9.60004 27.4461 9.72312 27.5692 9.8462 27.8154C10.0924 28.3077 10.3385 28.6769 10.5847 29.1692C10.7077 29.4154 10.9539 29.7846 11.2 29.9077C11.4462 30.0307 11.8154 30.1538 12.1847 30.0307C12.5539 29.9077 12.677 29.6615 12.9231 29.4154C13.1693 29.1692 13.4154 28.8 13.6616 28.4307Z" fill="#AF38F6"/>
<path d="M37.5385 24.9846C37.6616 24.7384 37.9077 24.3692 38.0308 24.1231C38.1539 23.8769 38.277 23.7538 38.4 23.5077C38.6462 23.0154 38.8923 22.6461 39.1385 22.1538C39.2616 21.9077 39.5077 21.5384 39.6308 21.2923C39.877 20.9231 40 20.4307 40 20.0615C40 19.9384 40 19.8154 40 19.6923C40 19.5692 40 19.3231 39.877 19.2C39.6308 18.7077 39.3846 18.3384 39.1385 17.8461C38.8923 17.4769 38.7693 17.2307 38.5231 16.8615C38.4 16.4923 38.1539 16.2461 38.0308 15.8769C37.9077 15.5077 37.6616 15.2615 37.4154 14.8923C37.1693 14.5231 37.0462 14.2769 36.8 13.9077C36.4308 13.2923 36.1846 12.8 35.8154 12.3077C35.5693 11.8154 35.3231 11.3231 34.9539 10.8307C34.8308 10.5846 34.7077 10.3384 34.4616 10.2154C34.2154 9.96921 33.9693 9.84613 33.7231 9.84613C33.477 9.84613 33.2308 9.96921 32.9846 10.0923C32.6154 10.4615 32.3693 10.9538 32 11.3231C32 11.8154 31.877 12.0615 31.7539 12.3077C31.5077 12.5538 31.3846 12.9231 31.1385 13.1692C31.0154 13.4154 30.7693 13.6615 30.6462 13.9077C30.4 14.1538 30.277 14.5231 30.0308 14.7692C29.9077 15.0154 29.6616 15.2615 29.5385 15.5077C29.2923 15.7538 29.1693 16.1231 28.9231 16.3692C28.8 16.6154 28.5539 16.8615 28.4308 17.1077C28.1846 17.3538 28.0616 17.7231 27.8154 17.9692C27.5693 18.2154 27.4462 18.4615 27.3231 18.7077C27.077 19.0769 26.8308 19.4461 26.9539 19.9384C26.9539 20.3077 27.077 20.5538 27.2 20.9231C27.4462 21.2923 27.6923 21.6615 28.0616 22.0307C28.3077 22.4 28.5539 22.7692 28.8 23.1384C28.9231 23.3846 29.1693 23.6307 29.2923 23.8769C29.5385 24.2461 29.7846 24.6154 30.0308 24.9846C30.277 25.3538 30.6462 25.8461 30.8923 26.2154C31.2616 26.7077 31.7539 27.3231 32.1231 27.8154C32.3693 28.0615 32.6154 28.4307 32.7385 28.6769C32.9846 28.9231 33.1077 29.2923 33.3539 29.5384C33.7231 29.7846 33.9693 30.0307 34.4616 29.9077C34.7077 29.7846 34.9539 29.6615 35.077 29.4154C35.2 29.1692 35.3231 28.9231 35.4462 28.8C35.6923 28.4307 35.8154 28.0615 36.0616 27.8154C36.1846 27.5692 36.3077 27.4461 36.4308 27.2C36.677 26.7077 36.9231 26.3384 37.1693 25.8461C37.2923 25.4769 37.4154 25.2307 37.5385 24.9846Z" fill="#AF38F6"/>
<path d="M24.2462 25.6C24.1231 25.4769 24.1231 25.3539 24 25.2308C23.7538 24.9846 23.6308 24.7385 23.3846 24.4923C23.2615 24.3693 23.2615 24.3693 23.1385 24.2462C23.0154 24.1231 22.8923 24.1231 22.8923 24.2462L22.7692 24.3693C22.6462 24.6154 22.5231 24.7385 22.2769 24.9846C21.9077 25.4769 21.5385 25.9693 21.1692 26.4616C20.9231 26.8308 20.6769 27.0769 20.4308 27.4462C20.3077 27.6923 20.1846 27.8154 19.9385 28.0616C19.6923 28.4308 19.4462 28.8 19.2 29.1693C18.9538 29.5385 18.7077 29.7846 18.4615 30.1539C17.9692 30.7693 17.6 31.3846 17.1077 32C16.7385 32.4923 16.3692 32.9846 16 33.6C16 33.7231 16 33.8462 16 33.9693C16 34.0923 16.1231 34.3385 16.1231 34.4616C16.3692 34.8308 16.6154 35.0769 17.1077 35.0769C19.0769 35.0769 21.0462 35.0769 23.1385 35.0769C25.1077 35.0769 27.2 35.0769 29.1692 35.0769C29.4154 35.0769 29.6615 34.9539 29.7846 34.8308C30.0308 34.7077 30.1538 34.4616 30.2769 34.2154C30.4 33.9693 30.4 33.8462 30.1538 33.6C30.0308 33.4769 29.9077 33.2308 29.7846 33.1077C29.5385 32.7385 29.2923 32.3693 29.0462 32C28.6769 31.5077 28.3077 30.8923 27.8154 30.4C27.3231 29.7846 26.9538 29.1693 26.4615 28.5539C26.0923 28.0616 25.8462 27.6923 25.4769 27.2C25.1077 26.7077 24.6154 26.2154 24.2462 25.6Z" fill="#AF38F6"/>
<path d="M28.0615 9.10768C28.3077 8.73845 28.6769 8.24614 29.0461 7.87691C29.2923 7.50768 29.6615 7.01537 29.9077 6.64614C30.0307 6.39999 30.1538 6.15384 30.0307 5.90768C30.0307 5.7846 29.9077 5.66153 29.7846 5.53845C29.7846 5.41537 29.6615 5.41537 29.6615 5.2923C29.4154 5.04614 29.1692 5.04614 28.8 5.04614C26.9538 5.04614 25.1077 5.04614 23.1384 5.04614C21.1692 5.04614 19.4461 5.04614 17.4769 5.04614C17.3538 5.04614 17.2307 5.04614 17.1077 5.04614C16.7384 5.04614 16.4923 5.2923 16.2461 5.66153C16.123 5.90768 16 6.15383 16.2461 6.39999C16.3692 6.52307 16.4923 6.76922 16.6154 6.8923C16.8615 7.26153 17.1077 7.63076 17.3538 7.99999C17.6 8.36922 17.9692 8.86153 18.2154 9.23076C18.4615 9.59999 18.8307 10.0923 19.2 10.4615C19.4461 10.8308 19.6923 11.0769 19.9384 11.4461C20.1846 11.8154 20.5538 12.3077 20.8 12.6769C20.923 12.9231 21.1692 13.1692 21.2923 13.2923C21.6615 13.7846 21.9077 14.1538 22.2769 14.6461C22.523 14.8923 22.7692 15.2615 22.8923 15.5077C23.0154 15.6308 23.1384 15.6308 23.1384 15.5077C23.3846 15.2615 23.5077 15.1384 23.7538 14.8923C24.123 14.5231 24.3692 14.0308 24.7384 13.6615C25.1077 13.1692 25.4769 12.6769 25.723 12.1846C25.9692 11.9384 26.0923 11.5692 26.3384 11.3231C26.7077 10.8308 26.9538 10.4615 27.323 9.96922C27.5692 9.72307 27.8154 9.35383 28.0615 9.10768Z" fill="#AF38F6"/>
<path d="M36.8001 6.03076C36.8001 6.15384 36.8001 6.27692 36.9232 6.27692C39.0155 10.7077 41.1078 15.2615 43.2001 19.6923C43.3232 19.8154 43.3232 19.9385 43.2001 20.1846C42.3385 21.9077 41.6001 23.6308 40.7385 25.3538C39.3847 28.1846 38.1539 31.0154 36.8001 33.7231C36.8001 33.8461 36.677 33.8461 36.677 33.9692C39.7539 29.2923 42.7078 24.6154 45.7847 19.9385C42.8308 15.2615 39.7539 10.5846 36.8001 6.03076Z" fill="#AF38F6"/>
<path d="M2.70769 20.3077C2.58462 20.1846 2.58462 20.0616 2.70769 19.9385C4.8 15.2616 7.01539 10.7077 9.10769 6.15387C9.10769 6.03079 9.10769 6.03079 9.23077 5.90771C6.03077 10.7077 3.07692 15.3846 0 20.0616C3.07692 24.7385 6.03077 29.2923 9.10769 33.9693C9.10769 33.8462 9.10769 33.8462 9.10769 33.7231C6.89231 29.2923 4.8 24.7385 2.70769 20.3077Z" fill="#AF38F6"/>
<path d="M31.8769 38.5231C30.6461 38.4 29.2923 38.1538 28.0615 38.0308C26.5846 37.9077 25.1077 37.6615 23.6308 37.5385C23.5077 37.5385 23.3846 37.5385 23.2615 37.5385C22.7692 37.5385 22.1538 37.6615 21.6615 37.7846C20.3077 37.9077 18.9538 38.1538 17.6 38.2769C16.1231 38.4 14.6461 38.6461 13.1692 38.7692H13.0461H13.1692C13.7846 38.8923 14.4 38.8923 14.8923 39.0154C16.2461 39.1385 17.6 39.3846 18.9538 39.5077C20.1846 39.6308 21.2923 39.7538 22.5231 39.8769C22.8923 39.8769 23.2615 40 23.6308 40C25.2308 39.7538 26.7077 39.6308 28.3077 39.3846C30.0308 39.1385 31.6308 39.0154 33.3538 38.7692H33.4769C33.3538 38.7692 33.3538 38.6461 33.2308 38.6461C32.7384 38.6461 32.3692 38.6461 31.8769 38.5231Z" fill="#AF38F6"/>
<path d="M13.0462 1.35385C14.5231 1.47692 15.877 1.72308 17.3539 1.84615C18.9539 2.09231 20.677 2.21538 22.277 2.46154C22.6462 2.46154 22.8924 2.46154 23.2616 2.46154C24.1231 2.33846 24.9847 2.21538 25.8462 2.21538C26.9539 2.09231 28.1847 1.96923 29.2924 1.84615C30.6462 1.72308 31.877 1.6 33.2308 1.35385C33.3539 1.35385 33.3539 1.35385 33.477 1.35385C33.2308 1.23077 33.1077 1.23077 32.9847 1.10769C31.5077 0.984615 30.0308 0.738462 28.5539 0.615385C26.9539 0.369231 25.3539 0.246154 23.7539 0C23.3847 0 23.0154 0 22.6462 0C21.1693 0.246154 19.6924 0.369231 18.2154 0.492308C16.4924 0.738462 14.6462 0.984615 13.0462 1.35385C12.9231 1.23077 12.9231 1.23077 12.8 1.23077C12.9231 1.23077 12.9231 1.35385 13.0462 1.35385Z" fill="#AF38F6"/>
<path d="M62.2769 26.7077V23.7539H65.1077L62.2769 16.3692L58.2154 26.7077H54.8923L60.8 11.9385H63.7539L69.6616 26.7077H62.2769Z" fill="white"/>
<path d="M89.9694 19.3231L84.4309 11.9385H88.1232L91.8155 16.8616L95.5078 11.9385H99.2001L93.6617 19.3231L99.2001 26.7077H95.5078L91.8155 21.7846L88.1232 26.7077H84.4309L89.9694 19.3231Z" fill="white"/>
<path d="M122.708 11.9385V26.7077H119.754V11.9385H122.708Z" fill="white"/>
<path d="M143.385 26.7077V11.9385H158.154V26.7077H143.385ZM155.2 23.7539V14.8923H146.339V23.7539H155.2Z" fill="white"/>
<path d="M172.923 26.7077V11.9385H175.877L184.738 22.4V11.9385H187.692V26.7077H184.738L175.877 16.6154V26.7077H172.923Z" fill="white"/>
</svg>
