<svg width="9" height="14" viewBox="0 0 9 14" fill="none" xmlns="http://www.w3.org/2000/svg">
<path d="M0.249756 4.22784H2.25781C2.32617 3.16827 3.0354 2.49323 4.1377 2.49323C5.21436 2.49323 5.93213 3.15118 5.93213 4.05695C5.93213 4.90289 5.57324 5.36432 4.51367 6.00519C3.33447 6.69733 2.83887 7.46637 2.91577 8.73102L2.92432 9.33771H4.90674V8.8421C4.90674 7.98761 5.2229 7.54327 6.34229 6.89386C7.5044 6.20172 8.15381 5.28741 8.15381 3.98004C8.15381 2.10016 6.59009 0.750061 4.24878 0.750061C1.71094 0.750061 0.318115 2.21979 0.249756 4.22784ZM4.00952 13.3965C4.8811 13.3965 5.42798 12.8668 5.42798 12.055C5.42798 11.2347 4.8811 10.7049 4.00952 10.7049C3.15503 10.7049 2.59107 11.2347 2.59107 12.055C2.59107 12.8668 3.15503 13.3965 4.00952 13.3965Z" fill="white"/>
</svg>
