<svg width="29" height="25" viewBox="0 0 29 25" fill="none" xmlns="http://www.w3.org/2000/svg">
<path d="M8.44839 17.582C8.67673 17.2776 8.82895 17.0492 9.05729 16.7448C9.20951 16.5925 9.28563 16.4403 9.43785 16.2881C9.59008 16.0598 9.7423 15.8314 9.89453 15.6031C10.0468 15.3747 10.199 15.2225 10.3512 14.9942C10.5795 14.6897 10.8079 14.3092 11.1123 14.0047C11.2646 13.7764 11.4168 13.6242 11.569 13.3958C11.6451 13.2436 11.7973 13.0914 11.8735 12.9391C12.0257 12.7869 12.1018 12.5586 12.1018 12.3302C12.1018 12.1019 12.1018 11.7975 11.9496 11.5691C11.7973 11.3408 11.6451 11.1124 11.4929 10.8841C11.2646 10.5797 11.1123 10.3513 10.884 10.0469C10.7318 9.89465 10.6557 9.74242 10.5034 9.5902C10.3512 9.36186 10.199 9.13352 10.0468 8.90518C9.97064 8.75296 9.81842 8.60073 9.7423 8.44851C9.59008 8.22017 9.43785 7.99183 9.28563 7.76349C9.1334 7.53516 8.98118 7.38293 8.82895 7.15459C8.5245 7.07848 8.37228 6.85014 8.22005 6.62181C8.06783 6.46958 7.99171 6.31736 7.83949 6.16513C7.45893 6.01291 7.07836 6.08902 6.85003 6.39347C6.6978 6.62181 6.54558 6.85014 6.39335 7.15459C6.24113 7.38293 6.0889 7.68738 5.93668 7.91572C5.78445 8.22017 5.55611 8.52462 5.40389 8.90518C5.32778 8.9813 5.25166 9.13352 5.25166 9.20963C5.17555 9.36186 5.02333 9.5902 4.94721 9.74242C4.8711 9.89465 4.79499 9.97076 4.71888 10.123C4.56665 10.4274 4.41443 10.6558 4.2622 10.9602C4.10998 11.1886 4.03386 11.3408 3.88164 11.5691C3.72941 11.7975 3.57719 12.1019 3.6533 12.4064C3.6533 12.7108 3.72941 12.9391 3.88164 13.1675C3.95775 13.2436 3.95775 13.3197 4.03386 13.4719C4.10998 13.7003 4.2622 13.8525 4.33831 14.0808C4.41443 14.2331 4.56665 14.4614 4.71888 14.6897C4.79499 14.7658 4.8711 14.9181 4.8711 14.9942C5.02333 15.2225 5.09944 15.3747 5.25166 15.6031C5.32778 15.7553 5.32778 15.8314 5.40389 15.9836C5.55611 16.2881 5.70834 16.5164 5.86056 16.8209C5.93668 16.9731 6.01279 17.0492 6.0889 17.2014C6.24113 17.5059 6.39335 17.7342 6.54558 18.0387C6.62169 18.1909 6.77391 18.4192 6.92614 18.4954C7.07836 18.5715 7.3067 18.6476 7.53504 18.5715C7.76338 18.4954 7.83949 18.3431 7.99171 18.1909C8.14394 18.0387 8.29616 17.8103 8.44839 17.582Z" fill="#AF38F6"/>
<path d="M23.5659 15.0984C23.642 14.9462 23.7943 14.7178 23.8704 14.5656C23.9465 14.4134 24.0226 14.3373 24.0987 14.1851C24.2509 13.8806 24.4032 13.6523 24.5554 13.3478C24.6315 13.1956 24.7837 12.9673 24.8598 12.815C25.0121 12.5867 25.0882 12.2822 25.0882 12.0539C25.0882 11.9778 25.0882 11.9017 25.0882 11.8256C25.0882 11.7495 25.0882 11.5972 25.0121 11.5211C24.8598 11.2167 24.7076 10.9883 24.5554 10.6839C24.4032 10.4555 24.327 10.3033 24.1748 10.075C24.0987 9.84665 23.9465 9.69442 23.8704 9.46608C23.7943 9.23775 23.642 9.08552 23.4898 8.85719C23.3376 8.62885 23.2615 8.47662 23.1092 8.24829C22.8809 7.86772 22.7287 7.56327 22.5003 7.25882C22.3481 6.95437 22.1959 6.64992 21.9676 6.34547C21.8914 6.19325 21.8153 6.04102 21.6631 5.96491C21.5109 5.81268 21.3587 5.73657 21.2064 5.73657C21.0542 5.73657 20.902 5.81268 20.7498 5.8888C20.5214 6.11713 20.3692 6.42158 20.1409 6.64992C20.1409 6.95437 20.0647 7.1066 19.9886 7.25882C19.8364 7.41105 19.7603 7.63938 19.6081 7.79161C19.532 7.94383 19.3797 8.09606 19.3036 8.24829C19.1514 8.40051 19.0753 8.62885 18.9231 8.78107C18.8469 8.9333 18.6947 9.08552 18.6186 9.23775C18.4664 9.38997 18.3903 9.61831 18.238 9.77054C18.1619 9.92276 18.0097 10.075 17.9336 10.2272C17.7814 10.3794 17.7053 10.6078 17.553 10.76C17.4008 10.9122 17.3247 11.0644 17.2486 11.2167C17.0964 11.445 16.9441 11.6733 17.0202 11.9778C17.0202 12.2061 17.0964 12.3584 17.1725 12.5867C17.3247 12.815 17.4769 13.0434 17.7053 13.2717C17.8575 13.5 18.0097 13.7284 18.1619 13.9567C18.238 14.1089 18.3903 14.2612 18.4664 14.4134C18.6186 14.6417 18.7708 14.8701 18.9231 15.0984C19.0753 15.3267 19.3036 15.6312 19.4558 15.8595C19.6842 16.164 19.9886 16.5445 20.217 16.849C20.3692 17.0012 20.5214 17.2296 20.5975 17.3818C20.7498 17.534 20.8259 17.7623 20.9781 17.9146C21.2064 18.0668 21.3587 18.219 21.6631 18.1429C21.8153 18.0668 21.9676 17.9907 22.0437 17.8385C22.1198 17.6862 22.1959 17.534 22.272 17.4579C22.4242 17.2296 22.5003 17.0012 22.6526 16.849C22.7287 16.6968 22.8048 16.6207 22.8809 16.4684C23.0331 16.164 23.1854 15.9356 23.3376 15.6312C23.4137 15.4029 23.4898 15.2506 23.5659 15.0984Z" fill="#AF38F6"/>
<path d="M14.9943 15.8315C14.9182 15.7554 14.9182 15.6793 14.8421 15.6032C14.6899 15.451 14.6138 15.2987 14.4615 15.1465C14.3854 15.0704 14.3854 15.0704 14.3093 14.9943C14.2332 14.9182 14.1571 14.9182 14.1571 14.9943L14.081 15.0704C14.0049 15.2226 13.9287 15.2987 13.7765 15.451C13.5482 15.7554 13.3198 16.0599 13.0915 16.3643C12.9393 16.5926 12.7871 16.7449 12.6348 16.9732C12.5587 17.1254 12.4826 17.2015 12.3304 17.3538C12.1782 17.5821 12.0259 17.8104 11.8737 18.0388C11.7215 18.2671 11.5693 18.4193 11.417 18.6477C11.1126 19.0282 10.8842 19.4088 10.5798 19.7894C10.3515 20.0938 10.1231 20.3983 9.89478 20.7788C9.89478 20.8549 9.89478 20.9311 9.89478 21.0072C9.89478 21.0833 9.97089 21.2355 9.97089 21.3116C10.1231 21.54 10.2753 21.6922 10.5798 21.6922C11.7976 21.6922 13.0154 21.6922 14.3093 21.6922C15.5271 21.6922 16.821 21.6922 18.0388 21.6922C18.191 21.6922 18.3433 21.6161 18.4194 21.54C18.5716 21.4638 18.6477 21.3116 18.7238 21.1594C18.7999 21.0072 18.7999 20.9311 18.6477 20.7788C18.5716 20.7027 18.4955 20.5505 18.4194 20.4744C18.2672 20.246 18.1149 20.0177 17.9627 19.7894C17.7344 19.4849 17.506 19.1044 17.2016 18.7999C16.8971 18.4193 16.6688 18.0388 16.3643 17.6582C16.136 17.3538 15.9838 17.1254 15.7554 16.821C15.5271 16.5165 15.2227 16.2121 14.9943 15.8315Z" fill="#AF38F6"/>
<path d="M17.3534 5.63247C17.5057 5.40413 17.734 5.09968 17.9623 4.87135C18.1146 4.64301 18.3429 4.33856 18.4951 4.11022C18.5712 3.958 18.6473 3.80577 18.5712 3.65355C18.5712 3.57743 18.4951 3.50132 18.419 3.42521C18.419 3.3491 18.3429 3.3491 18.3429 3.27298C18.1907 3.12076 18.0384 3.12076 17.8101 3.12076C16.6684 3.12076 15.5267 3.12076 14.3089 3.12076C13.0911 3.12076 12.0256 3.12076 10.8078 3.12076C10.7316 3.12076 10.6555 3.12076 10.5794 3.12076C10.3511 3.12076 10.1989 3.27298 10.0466 3.50132C9.97051 3.65355 9.8944 3.80577 10.0466 3.958C10.1227 4.03411 10.1989 4.18633 10.275 4.26245C10.4272 4.49078 10.5794 4.71912 10.7316 4.94746C10.8839 5.1758 11.1122 5.48025 11.2644 5.70858C11.4167 5.93692 11.645 6.24137 11.8733 6.46971C12.0256 6.69805 12.1778 6.85027 12.33 7.07861C12.4822 7.30695 12.7106 7.6114 12.8628 7.83973C12.9389 7.99196 13.0911 8.14418 13.1672 8.2203C13.3956 8.52475 13.5478 8.75308 13.7761 9.05753C13.9284 9.20976 14.0806 9.4381 14.1567 9.59032C14.2328 9.66643 14.3089 9.66643 14.3089 9.59032C14.4612 9.4381 14.5373 9.36198 14.6895 9.20976C14.9178 8.98142 15.0701 8.67697 15.2984 8.44863C15.5267 8.14418 15.7551 7.83973 15.9073 7.53528C16.0595 7.38306 16.1356 7.15472 16.2879 7.0025C16.5162 6.69805 16.6684 6.46971 16.8968 6.16526C17.049 6.01303 17.2012 5.7847 17.3534 5.63247Z" fill="#AF38F6"/>
<path d="M22.7578 3.72958C22.7578 3.8057 22.7578 3.88181 22.8339 3.88181C24.1278 6.62186 25.4217 9.43802 26.7156 12.1781C26.7917 12.2542 26.7917 12.3303 26.7156 12.4825C26.1828 13.5481 25.7261 14.6137 25.1934 15.6793C24.3561 17.4298 23.595 19.1804 22.7578 20.8549C22.7578 20.931 22.6816 20.931 22.6816 21.0071C24.5845 18.1149 26.4112 15.2226 28.314 12.3303C26.4873 9.43802 24.5845 6.54575 22.7578 3.72958Z" fill="#AF38F6"/>
<path d="M1.67448 12.5585C1.59836 12.4824 1.59836 12.4063 1.67448 12.3302C2.96839 9.4379 4.33841 6.62174 5.63233 3.80558C5.63233 3.72946 5.63233 3.72946 5.70844 3.65335C3.72951 6.62174 1.90281 9.51401 0 12.4063C1.90281 15.2986 3.72951 18.1147 5.63233 21.007C5.63233 20.9309 5.63233 20.9309 5.63233 20.8548C4.2623 18.1147 2.96839 15.2986 1.67448 12.5585Z" fill="#AF38F6"/>
<path d="M19.7131 23.8232C18.952 23.7471 18.1147 23.5949 17.3536 23.5187C16.4402 23.4426 15.5269 23.2904 14.6135 23.2143C14.5374 23.2143 14.4613 23.2143 14.3852 23.2143C14.0808 23.2143 13.7002 23.2904 13.3957 23.3665C12.5585 23.4426 11.7213 23.5949 10.884 23.671C9.97068 23.7471 9.05733 23.8993 8.14398 23.9754H8.06787H8.14398C8.52455 24.0515 8.90511 24.0515 9.20956 24.1276C10.0468 24.2038 10.884 24.356 11.7213 24.4321C12.4824 24.5082 13.1674 24.5843 13.9285 24.6604C14.1569 24.6604 14.3852 24.7365 14.6135 24.7365C15.603 24.5843 16.5164 24.5082 17.5058 24.356C18.5714 24.2038 19.5609 24.1276 20.6264 23.9754H20.7025C20.6264 23.9754 20.6264 23.8993 20.5503 23.8993C20.2459 23.8993 20.0175 23.8993 19.7131 23.8232Z" fill="#AF38F6"/>
<path d="M8.068 0.837238C8.98135 0.91335 9.81858 1.06558 10.7319 1.14169C11.7214 1.29391 12.787 1.37003 13.7764 1.52225C14.0048 1.52225 14.157 1.52225 14.3853 1.52225C14.9181 1.44614 15.4509 1.37003 15.9837 1.37003C16.6687 1.29391 17.4298 1.2178 18.1148 1.14169C18.9521 1.06558 19.7132 0.989463 20.5504 0.837238C20.6266 0.837238 20.6266 0.837238 20.7027 0.837238C20.5504 0.761125 20.4743 0.761125 20.3982 0.685013C19.4849 0.6089 18.5715 0.456675 17.6582 0.380563C16.6687 0.228338 15.6792 0.152225 14.6898 0C14.4614 0 14.2331 0 14.0048 0C13.0914 0.152225 12.1781 0.228338 11.2647 0.30445C10.1991 0.456675 9.05746 0.6089 8.068 0.837238C7.99188 0.761125 7.99188 0.761125 7.91577 0.761125C7.99188 0.761125 7.99188 0.837238 8.068 0.837238Z" fill="#AF38F6"/>
</svg>
