<svg width="16" height="18" viewBox="0 0 16 18" fill="none" xmlns="http://www.w3.org/2000/svg">
<path d="M11.0909 17.4546H2.00005C0.896753 17.4546 0 16.5578 0 15.4545V5.63633C0 4.53303 0.896753 3.63641 2.00005 3.63641H2.3636C2.66469 3.63641 2.90905 3.88078 2.90905 4.18187C2.90905 4.48296 2.66469 4.72733 2.3636 4.72733H2.00005C1.49894 4.72733 1.09091 5.13522 1.09091 5.63633V15.4545C1.09091 15.9557 1.49894 16.3637 2.00005 16.3637H11.0909C11.592 16.3637 12 15.9557 12 15.4545V15.091C12 14.7899 12.2444 14.5455 12.5455 14.5455C12.8466 14.5455 13.0909 14.7899 13.0909 15.091V15.4545C13.0909 16.5578 12.1942 17.4546 11.0909 17.4546Z" fill="#717274"/>
<path d="M14.0001 13.0909H6.3637C5.2604 13.0909 4.36365 12.1942 4.36365 11.0909V2.00005C4.36365 0.896753 5.2604 0 6.3637 0H14.0001C15.1034 0 16 0.896753 16 2.00005V11.0909C16 12.1942 15.1034 13.0909 14.0001 13.0909ZM6.3637 1.09091C5.86259 1.09091 5.45456 1.49894 5.45456 2.00005V11.0909C5.45456 11.592 5.86259 12 6.3637 12H14.0001C14.5012 12 14.9091 11.592 14.9091 11.0909V2.00005C14.9091 1.49894 14.5012 1.09091 14.0001 1.09091H6.3637Z" fill="#717274"/>
</svg>
