<svg width="12" height="20" viewBox="0 0 12 20" fill="none" xmlns="http://www.w3.org/2000/svg">
<path fill-rule="evenodd" clip-rule="evenodd" d="M5.81697 0.193474C5.77343 0.299858 4.45755 2.55529 2.89281 5.20556C1.32807 7.85578 0.0347968 10.0589 0.018796 10.1015C-0.00198348 10.1568 0.848097 10.6966 2.99955 11.9942L6.00947 13.8096L9.01852 11.9932C11.1803 10.6883 12.0194 10.1549 11.9984 10.099C11.8896 9.8097 6.0383 0 5.97446 0C5.93139 0 5.86052 0.0870361 5.81697 0.193474ZM0.0259373 11.407C0.141916 11.6095 5.98461 20.0008 6.00904 20C6.04941 19.9987 12.023 11.3822 11.9999 11.3585C11.9781 11.3363 6.3945 14.6932 6.16158 14.8685L6.01881 14.976L3.12788 13.2338C1.53785 12.2755 0.178213 11.4529 0.106478 11.4057C-0.0124538 11.3275 -0.019595 11.3276 0.0259373 11.407Z" fill="white"/>
</svg>
