<svg width="12" height="19" viewBox="0 0 12 19" fill="none" xmlns="http://www.w3.org/2000/svg">
<path opacity="0.5" fill-rule="evenodd" clip-rule="evenodd" d="M5.81697 0.183801C5.77343 0.284865 4.45755 2.42752 2.89281 4.94528C1.32807 7.46299 0.0347968 9.55597 0.018796 9.59638C-0.00198348 9.64892 0.848097 10.1617 2.99955 11.3945L6.00947 13.1191L9.01852 11.3936C11.1803 10.1539 12.0194 9.64715 11.9984 9.59404C11.8896 9.31922 6.0383 0 5.97446 0C5.93139 0 5.86052 0.0826843 5.81697 0.183801ZM0.0259373 10.8367C0.141916 11.029 5.98461 19.0007 6.00904 19C6.04941 18.9988 12.023 10.8131 11.9999 10.7906C11.9781 10.7695 6.3945 13.9585 6.16158 14.1251L6.01881 14.2272L3.12788 12.5721C1.53785 11.6618 0.178213 10.8802 0.106478 10.8354C-0.0124538 10.7611 -0.019595 10.7612 0.0259373 10.8367Z" fill="white"/>
</svg>
