<svg width="22" height="19" viewBox="0 0 22 19" fill="none" xmlns="http://www.w3.org/2000/svg">
<path d="M6.2697 13.048C6.43915 12.8221 6.55212 12.6526 6.72157 12.4267C6.83454 12.3137 6.89103 12.2007 7.004 12.0877C7.11697 11.9183 7.22994 11.7488 7.34291 11.5794C7.45588 11.4099 7.56885 11.297 7.68181 11.1275C7.85127 10.9016 8.02072 10.6191 8.24666 10.3932C8.35963 10.2238 8.4726 10.1108 8.58557 9.94133C8.64205 9.82836 8.75502 9.71539 8.81151 9.60242C8.92448 9.48945 8.98096 9.32 8.98096 9.15055C8.98096 8.98109 8.98096 8.75515 8.86799 8.5857C8.75502 8.41624 8.64205 8.24679 8.52909 8.07734C8.35963 7.8514 8.24666 7.68194 8.07721 7.456C7.96424 7.34303 7.90775 7.23006 7.79478 7.1171C7.68181 6.94764 7.56885 6.77819 7.45588 6.60873C7.39939 6.49576 7.28642 6.38279 7.22994 6.26982C7.11697 6.10037 7.004 5.93092 6.89103 5.76146C6.77806 5.59201 6.66509 5.47904 6.55212 5.30958C6.32618 5.2531 6.21321 5.08365 6.10024 4.91419C5.98727 4.80122 5.93079 4.68825 5.81782 4.57528C5.5354 4.46231 5.25297 4.5188 5.08352 4.74474C4.97055 4.91419 4.85758 5.08365 4.74461 5.30958C4.63164 5.47904 4.51867 5.70498 4.4057 5.87443C4.29273 6.10037 4.12328 6.32631 4.01031 6.60873C3.95382 6.66522 3.89734 6.77819 3.89734 6.83467C3.84085 6.94764 3.72789 7.1171 3.6714 7.23006C3.61492 7.34303 3.55843 7.39952 3.50195 7.51249C3.38898 7.73843 3.27601 7.90788 3.16304 8.13382C3.05007 8.30327 2.99358 8.41624 2.88061 8.5857C2.76765 8.75515 2.65468 8.98109 2.71116 9.20703C2.71116 9.43297 2.76765 9.60242 2.88061 9.77188C2.9371 9.82836 2.9371 9.88485 2.99358 9.99782C3.05007 10.1673 3.16304 10.2802 3.21952 10.4497C3.27601 10.5627 3.38898 10.7321 3.50195 10.9016C3.55843 10.9581 3.61492 11.071 3.61492 11.1275C3.72789 11.297 3.78437 11.4099 3.89734 11.5794C3.95382 11.6924 3.95382 11.7488 4.01031 11.8618C4.12328 12.0877 4.23625 12.2572 4.34922 12.4831C4.4057 12.5961 4.46219 12.6526 4.51867 12.7656C4.63164 12.9915 4.74461 13.161 4.85758 13.3869C4.91406 13.4999 5.02703 13.6693 5.14 13.7258C5.25297 13.7823 5.42243 13.8388 5.59188 13.7823C5.76133 13.7258 5.81782 13.6128 5.93079 13.4999C6.04376 13.3869 6.15673 13.2174 6.2697 13.048Z" fill="white"/>
<path d="M17.2279 11.4664C17.2844 11.3534 17.3973 11.184 17.4538 11.071C17.5103 10.9581 17.5668 10.9016 17.6233 10.7886C17.7362 10.5627 17.8492 10.3932 17.9622 10.1673C18.0187 10.0543 18.1316 9.88484 18.1881 9.77188C18.3011 9.60242 18.3576 9.37648 18.3576 9.20703C18.3576 9.15054 18.3576 9.09406 18.3576 9.03757C18.3576 8.98109 18.3576 8.86812 18.3011 8.81164C18.1881 8.5857 18.0751 8.41624 17.9622 8.1903C17.8492 8.02085 17.7927 7.90788 17.6797 7.73843C17.6233 7.56897 17.5103 7.456 17.4538 7.28655C17.3973 7.11709 17.2844 7.00413 17.1714 6.83467C17.0584 6.66522 17.0019 6.55225 16.889 6.38279C16.7195 6.10037 16.6065 5.87443 16.4371 5.64849C16.3241 5.42255 16.2111 5.19662 16.0417 4.97068C15.9852 4.85771 15.9287 4.74474 15.8158 4.68825C15.7028 4.57528 15.5898 4.5188 15.4768 4.5188C15.3639 4.5188 15.2509 4.57528 15.1379 4.63177C14.9685 4.80122 14.8555 5.02716 14.6861 5.19662C14.6861 5.42255 14.6296 5.53552 14.5731 5.64849C14.4601 5.76146 14.4036 5.93092 14.2907 6.04389C14.2342 6.15686 14.1212 6.26982 14.0647 6.38279C13.9518 6.49576 13.8953 6.66522 13.7823 6.77819C13.7258 6.89116 13.6129 7.00413 13.5564 7.1171C13.4434 7.23006 13.3869 7.39952 13.2739 7.51249C13.2175 7.62546 13.1045 7.73843 13.048 7.8514C12.935 7.96437 12.8786 8.13382 12.7656 8.24679C12.6526 8.35976 12.5961 8.47273 12.5396 8.5857C12.4267 8.75515 12.3137 8.92461 12.3702 9.15054C12.3702 9.32 12.4267 9.43297 12.4832 9.60242C12.5961 9.77188 12.7091 9.94133 12.8785 10.1108C12.9915 10.2802 13.1045 10.4497 13.2175 10.6191C13.2739 10.7321 13.3869 10.8451 13.4434 10.9581C13.5564 11.1275 13.6693 11.297 13.7823 11.4664C13.8953 11.6359 14.0647 11.8618 14.1777 12.0313C14.3472 12.2572 14.5731 12.5396 14.7425 12.7656C14.8555 12.8785 14.9685 13.048 15.025 13.161C15.1379 13.2739 15.1944 13.4434 15.3074 13.5564C15.4768 13.6693 15.5898 13.7823 15.8158 13.7258C15.9287 13.6693 16.0417 13.6128 16.0982 13.4999C16.1547 13.3869 16.2111 13.2739 16.2676 13.2174C16.3806 13.048 16.4371 12.8785 16.5501 12.7656C16.6065 12.6526 16.663 12.5961 16.7195 12.4831C16.8325 12.2572 16.9454 12.0877 17.0584 11.8618C17.1149 11.6924 17.1714 11.5794 17.2279 11.4664Z" fill="white"/>
<path d="M11.1277 11.7489C11.0712 11.6924 11.0712 11.6359 11.0147 11.5794C10.9017 11.4665 10.8453 11.3535 10.7323 11.2405C10.6758 11.1841 10.6758 11.1841 10.6193 11.1276C10.5628 11.0711 10.5063 11.0711 10.5063 11.1276L10.4499 11.1841C10.3934 11.297 10.3369 11.3535 10.2239 11.4665C10.0545 11.6924 9.88501 11.9184 9.71556 12.1443C9.60259 12.3137 9.48962 12.4267 9.37665 12.5962C9.32017 12.7091 9.26368 12.7656 9.15071 12.8786C9.03774 13.048 8.92477 13.2175 8.8118 13.387C8.69883 13.5564 8.58586 13.6694 8.47289 13.8388C8.24696 14.1213 8.0775 14.4037 7.85156 14.6861C7.68211 14.912 7.51265 15.138 7.3432 15.4204C7.3432 15.4769 7.3432 15.5334 7.3432 15.5899C7.3432 15.6463 7.39969 15.7593 7.39969 15.8158C7.51265 15.9853 7.62562 16.0982 7.85156 16.0982C8.75532 16.0982 9.65907 16.0982 10.6193 16.0982C11.5231 16.0982 12.4833 16.0982 13.3871 16.0982C13.5 16.0982 13.613 16.0417 13.6695 15.9853C13.7825 15.9288 13.8389 15.8158 13.8954 15.7028C13.9519 15.5899 13.9519 15.5334 13.8389 15.4204C13.7825 15.3639 13.726 15.251 13.6695 15.1945C13.5565 15.025 13.4435 14.8556 13.3306 14.6861C13.1611 14.4602 12.9917 14.1777 12.7657 13.9518C12.5398 13.6694 12.3703 13.387 12.1444 13.1045C11.9749 12.8786 11.862 12.7091 11.6925 12.4832C11.5231 12.2573 11.2971 12.0313 11.1277 11.7489Z" fill="white"/>
<path d="M12.8783 4.17997C12.9912 4.01052 13.1607 3.78458 13.3301 3.61513C13.4431 3.44567 13.6126 3.21973 13.7255 3.05028C13.782 2.93731 13.8385 2.82434 13.782 2.71137C13.782 2.65489 13.7255 2.5984 13.669 2.54192C13.669 2.48543 13.6126 2.48543 13.6126 2.42895C13.4996 2.31598 13.3866 2.31598 13.2172 2.31598C12.3699 2.31598 11.5226 2.31598 10.6189 2.31598C9.71511 2.31598 8.92433 2.31598 8.02057 2.31598C7.96409 2.31598 7.9076 2.31598 7.85112 2.31598C7.68166 2.31598 7.5687 2.42895 7.45573 2.5984C7.39924 2.71137 7.34276 2.82434 7.45573 2.93731C7.51221 2.9938 7.5687 3.10676 7.62518 3.16325C7.73815 3.3327 7.85112 3.50216 7.96409 3.67161C8.07706 3.84107 8.24651 4.067 8.35948 4.23646C8.47245 4.40591 8.6419 4.63185 8.81136 4.80131C8.92433 4.97076 9.0373 5.08373 9.15027 5.25318C9.26324 5.42264 9.43269 5.64858 9.54566 5.81803C9.60214 5.931 9.71511 6.04397 9.7716 6.10045C9.94105 6.32639 10.054 6.49585 10.2235 6.72179C10.3364 6.83475 10.4494 7.00421 10.5059 7.11718C10.5624 7.17366 10.6189 7.17366 10.6189 7.11718C10.7318 7.00421 10.7883 6.94772 10.9013 6.83475C11.0707 6.6653 11.1837 6.43936 11.3532 6.26991C11.5226 6.04397 11.6921 5.81803 11.805 5.59209C11.918 5.47912 11.9745 5.30967 12.0875 5.1967C12.2569 4.97076 12.3699 4.80131 12.5393 4.57537C12.6523 4.4624 12.7653 4.29294 12.8783 4.17997Z" fill="white"/>
<path d="M16.889 2.76781C16.889 2.82429 16.889 2.88078 16.9455 2.88078C17.9057 4.91423 18.866 7.00416 19.8262 9.03761C19.8827 9.09409 19.8827 9.15058 19.8262 9.26355C19.4308 10.0543 19.0919 10.8451 18.6965 11.6359C18.0752 12.9351 17.5103 14.2342 16.889 15.4769C16.889 15.5334 16.8325 15.5334 16.8325 15.5898C18.2446 13.4434 19.6003 11.297 21.0124 9.15058C19.6568 7.00416 18.2446 4.85774 16.889 2.76781Z" fill="white"/>
<path d="M1.24266 9.31995C1.18618 9.26347 1.18618 9.20698 1.24266 9.1505C2.2029 7.00408 3.21963 4.91415 4.17987 2.82421C4.17987 2.76773 4.17987 2.76773 4.23635 2.71124C2.76775 4.91415 1.41212 7.06056 0 9.20698C1.41212 11.3534 2.76775 13.4433 4.17987 15.5898C4.17987 15.5333 4.17987 15.5333 4.17987 15.4768C3.16314 13.4433 2.2029 11.3534 1.24266 9.31995Z" fill="white"/>
<path d="M14.6295 17.6797C14.0646 17.6232 13.4433 17.5103 12.8785 17.4538C12.2007 17.3973 11.5228 17.2843 10.845 17.2278C10.7885 17.2278 10.732 17.2278 10.6756 17.2278C10.4496 17.2278 10.1672 17.2843 9.94126 17.3408C9.31993 17.3973 8.6986 17.5103 8.07727 17.5667C7.39945 17.6232 6.72164 17.7362 6.04382 17.7927H5.98734H6.04382C6.32624 17.8492 6.60867 17.8492 6.83461 17.9056C7.45594 17.9621 8.07727 18.0751 8.6986 18.1316C9.26345 18.1881 9.77181 18.2446 10.3367 18.301C10.5061 18.301 10.6756 18.3575 10.845 18.3575C11.5793 18.2446 12.2571 18.1881 12.9914 18.0751C13.7822 17.9621 14.5165 17.9056 15.3073 17.7927H15.3638C15.3073 17.7927 15.3073 17.7362 15.2508 17.7362C15.0249 17.7362 14.8554 17.7362 14.6295 17.6797Z" fill="white"/>
<path d="M5.98745 0.621332C6.66527 0.677816 7.2866 0.790786 7.96442 0.847271C8.69872 0.96024 9.4895 1.01672 10.2238 1.12969C10.3933 1.12969 10.5062 1.12969 10.6757 1.12969C11.0711 1.07321 11.4665 1.01672 11.8619 1.01672C12.3702 0.96024 12.9351 0.903755 13.4434 0.847271C14.0648 0.790786 14.6296 0.734301 15.2509 0.621332C15.3074 0.621332 15.3074 0.621332 15.3639 0.621332C15.2509 0.564847 15.1945 0.564847 15.138 0.508362C14.4602 0.451878 13.7823 0.338908 13.1045 0.282424C12.3702 0.169454 11.6359 0.112969 10.9016 0C10.7322 0 10.5627 0 10.3933 0C9.71544 0.112969 9.03762 0.169454 8.35981 0.225939C7.56902 0.338908 6.72175 0.451878 5.98745 0.621332C5.93097 0.564847 5.93097 0.564847 5.87448 0.564847C5.93097 0.564847 5.93097 0.621332 5.98745 0.621332Z" fill="white"/>
</svg>
