<svg width="23" height="25" viewBox="0 0 23 25" fill="none" xmlns="http://www.w3.org/2000/svg">
<g opacity="0.5">
<path d="M7.02974 1.78004C6.71138 1.73096 6.69795 1.7252 6.84776 1.70231C7.13488 1.65843 7.81284 1.71824 8.28003 1.82864C9.37069 2.08632 10.3631 2.7464 11.4225 3.91872L11.7039 4.23017L12.1066 4.16583C13.8027 3.89492 15.5282 4.11023 16.9714 4.77287C17.3684 4.95518 17.9945 5.31807 18.0727 5.41132C18.0976 5.44103 18.1433 5.63234 18.1743 5.83648C18.2815 6.54274 18.2278 7.08409 18.0106 7.48843C17.8923 7.70845 17.8857 7.77819 17.9652 7.96648C18.0287 8.11675 18.2056 8.22797 18.3809 8.22773C18.7394 8.22724 19.1256 7.65101 19.3044 6.84922L19.3755 6.53075L19.5162 6.6892C20.2882 7.55855 20.8946 8.74415 20.9987 9.58806L21.0258 9.80809L20.8961 9.60807C20.6728 9.26386 20.4483 9.02955 20.161 8.84056C19.643 8.49991 19.0953 8.38399 17.6449 8.30801C16.3348 8.23941 15.5934 8.1282 14.8582 7.88992C13.6074 7.48459 12.9768 6.94476 11.491 5.00722C10.8311 4.14663 10.4231 3.67049 10.0174 3.28705C9.09539 2.41576 8.18943 1.95882 7.02974 1.78004Z" fill="#71727491"/>
<path d="M18.368 3.70152C18.401 3.12485 18.4796 2.74449 18.6379 2.39712C18.7005 2.25963 18.7591 2.14709 18.7682 2.14709C18.7772 2.14709 18.7499 2.24857 18.7076 2.3726C18.5926 2.70971 18.5737 3.17082 18.6529 3.7073C18.7535 4.38798 18.8107 4.4862 19.5346 5.22148C19.8741 5.56638 20.2691 6.00135 20.4121 6.1881L20.6725 6.52767L20.4121 6.28499C20.0938 5.98822 19.3618 5.40947 19.2001 5.32674C19.0916 5.27126 19.0755 5.27222 19.0086 5.33838C18.947 5.39935 18.934 5.49096 18.9255 5.92406C18.9121 6.59908 18.8195 7.03233 18.5962 7.46554C18.4753 7.69985 18.4562 7.64984 18.5656 7.38537C18.6472 7.1879 18.6555 7.1011 18.655 6.44766C18.6536 5.13472 18.4968 4.81907 17.5772 4.27836C17.3442 4.14138 16.9603 3.94384 16.7241 3.83935C16.4879 3.73486 16.3002 3.64384 16.3071 3.63704C16.3331 3.61129 17.23 3.87147 17.5911 4.0095C18.1281 4.21479 18.2166 4.2414 18.2818 4.21664C18.3257 4.20003 18.3468 4.07349 18.368 3.70152Z" fill="#71727491"/>
<path d="M7.64813 5.94761C7.00181 5.06322 6.60191 3.70724 6.68849 2.69359L6.71526 2.37991L6.86238 2.40659C7.13866 2.45667 7.61502 2.6329 7.83807 2.76756C8.45019 3.13704 8.7152 3.62351 8.98479 4.87267C9.06377 5.23856 9.16738 5.65262 9.21506 5.7928C9.2918 6.01843 9.58183 6.54546 9.81763 6.88773C9.98747 7.13425 9.87465 7.25107 9.49921 7.21737C8.92584 7.16594 8.14918 6.63319 7.64813 5.94761Z" fill="#71727491"/>
<path d="M17.584 12.5297C14.5636 11.321 13.4998 10.2718 13.4998 8.50153C13.4998 8.24101 13.5088 8.02786 13.5198 8.02786C13.5308 8.02786 13.6476 8.11383 13.7795 8.21893C14.392 8.7072 15.0778 8.91574 16.9765 9.19106C18.0939 9.35308 18.7227 9.48394 19.3027 9.67512C21.1462 10.2828 22.2868 11.516 22.5588 13.1957C22.6379 13.6838 22.5915 14.599 22.4634 15.0814C22.3623 15.4624 22.0535 16.1492 21.9715 16.1756C21.9489 16.1829 21.9267 16.0964 21.9208 15.9787C21.8898 15.348 21.5691 14.7339 21.0306 14.274C20.4182 13.751 19.5956 13.3346 17.584 12.5297Z" fill="#71727491"/>
<path d="M15.4635 13.0318C15.4256 12.808 15.36 12.5221 15.3176 12.3966L15.2405 12.1684L15.3837 12.3281C15.5818 12.5491 15.7383 12.8319 15.871 13.2085C15.9723 13.496 15.9837 13.5815 15.9829 14.0486C15.9821 14.5072 15.9695 14.6034 15.876 14.8621C15.7285 15.2702 15.5455 15.5595 15.2385 15.87C14.6868 16.4282 13.9774 16.7372 12.9537 16.8653C12.7758 16.8875 12.2572 16.9251 11.8012 16.9486C10.6522 17.008 9.89597 17.1308 9.21643 17.368C9.11875 17.402 9.03151 17.4228 9.02265 17.414C8.99516 17.3868 9.45782 17.1127 9.83997 16.9297C10.3788 16.6716 10.9152 16.531 12.117 16.332C12.7107 16.2337 13.3237 16.1145 13.4794 16.0671C14.9496 15.619 15.7053 14.4629 15.4635 13.0318Z" fill="#71727491"/>
<path d="M16.8484 15.4759C16.4471 14.6185 16.355 13.7906 16.5748 13.0185C16.5984 12.936 16.6362 12.8685 16.6589 12.8685C16.6817 12.8685 16.7764 12.9194 16.8693 12.9816C17.0543 13.1053 17.4252 13.3137 18.4133 13.8492C19.6463 14.5173 20.3494 15.0347 20.8275 15.6258C21.2462 16.1435 21.5052 16.7331 21.63 17.4522C21.7006 17.8593 21.6591 18.8392 21.554 19.2493C21.2225 20.5424 20.452 21.558 19.3531 22.1507C19.192 22.2376 19.0475 22.3089 19.0319 22.3092C19.0161 22.3095 19.0749 22.1612 19.1623 21.9798C19.5318 21.2116 19.574 20.4645 19.2945 19.6329C19.1233 19.1237 18.7744 18.5023 18.0699 17.4522C17.2507 16.2313 17.0499 15.9064 16.8484 15.4759Z" fill="#71727491"/>
<path d="M5.50314 20.1022C6.62401 19.1616 8.01865 18.4933 9.28903 18.2881C9.83653 18.1998 10.7486 18.2348 11.2556 18.3638C12.0682 18.5705 12.7952 19.0336 13.1732 19.5851C13.5427 20.1242 13.7012 20.594 13.8663 21.6393C13.9314 22.0517 14.0022 22.4656 14.0236 22.5594C14.1476 23.1012 14.3888 23.5341 14.6876 23.7516C15.1623 24.097 15.9797 24.1183 16.7839 23.8066C16.9203 23.7536 17.0388 23.7171 17.0471 23.7254C17.0764 23.7542 16.6714 24.0235 16.3858 24.1654C16.0014 24.3562 15.6957 24.43 15.2896 24.43C14.5532 24.43 13.9417 24.0577 13.4315 23.2984C13.3311 23.1489 13.1055 22.7014 12.93 22.3038C12.3914 21.0826 12.1254 20.7106 11.4999 20.3035C10.9556 19.9493 10.2536 19.8858 9.72554 20.1432C9.03185 20.4812 8.8383 21.3623 9.33513 21.9206C9.5326 22.1426 9.90083 22.3339 10.2019 22.3711C10.7652 22.4409 11.2493 22.0149 11.2493 21.4496C11.2493 21.0826 11.1074 20.8732 10.7501 20.7128C10.2621 20.4939 9.7375 20.7498 9.74001 21.2055C9.74109 21.3999 9.82622 21.5218 10.0222 21.61C10.1479 21.6665 10.1508 21.6709 10.0483 21.6498C9.60054 21.5575 9.49564 21.021 9.85566 20.6648C10.2879 20.2373 11.1817 20.4259 11.4887 21.0096C11.6176 21.2548 11.6326 21.743 11.5201 22.0378C11.2686 22.6977 10.5349 23.0446 9.79068 22.8559C9.28398 22.7272 9.07766 22.588 8.46676 21.9626C7.40521 20.8757 6.9931 20.6651 5.4627 20.4277L5.16943 20.3822L5.50314 20.1022Z" fill="#71727491"/>
<path fill-rule="evenodd" clip-rule="evenodd" d="M0.522093 0.650085C4.06718 4.92656 6.50886 6.69096 6.7802 7.06372C7.00423 7.37153 6.91992 7.64825 6.53612 7.86512C6.32268 7.9857 5.88387 8.10786 5.66417 8.10786C5.41569 8.10786 5.33036 8.0126 5.33036 8.0126C5.18629 7.87677 5.10514 7.90052 4.36523 6.59517C3.33802 5.01096 2.47837 3.69678 2.45492 3.67478C2.40069 3.6239 2.40162 3.62561 4.2605 6.93136C4.56084 7.62036 4.32023 7.87328 4.32023 7.97141C4.32023 8.17103 4.26545 8.27596 4.01768 8.55065C3.60464 9.00863 3.42 9.52321 3.28671 10.5882C3.1373 11.782 2.71713 12.6253 1.55275 14.0686C0.871154 14.9135 0.759626 15.0684 0.58764 15.4089C0.371011 15.8377 0.311446 16.0779 0.287304 16.6193C0.261787 17.1919 0.311483 17.5618 0.487472 18.1092C0.641544 18.5885 0.802367 18.9049 1.21351 19.5377C1.56831 20.0839 1.77261 20.4899 1.77261 20.6487C1.77261 20.775 1.79688 20.7751 2.34668 20.6517C3.66243 20.3565 4.73082 19.8371 5.33168 19.2005C5.70357 18.8065 5.79087 18.589 5.7937 18.0492C5.79556 17.6961 5.78307 17.6221 5.68703 17.4189C5.53069 17.0883 5.24608 16.8134 4.61879 16.3872C3.79689 15.8288 3.44583 15.3792 3.34887 14.7609C3.26932 14.2536 3.3616 13.8957 3.81629 12.9485C4.28691 11.9681 4.40355 11.5503 4.48244 10.5621C4.5334 9.92366 4.60396 9.67188 4.78852 9.46976C4.98101 9.25902 5.15429 9.18764 5.63065 9.12295C6.40728 9.01751 6.9018 8.81781 7.30829 8.44552C7.66091 8.12254 7.80847 7.81135 7.83111 7.34288L7.84831 6.98781L7.65125 6.75946C6.93763 5.93246 0.0441878 0 0.000271619 0C-0.00911012 0 0.225719 0.292557 0.522093 0.650085ZM2.1732 17.2673C2.33455 16.9832 2.24881 16.6182 1.97893 16.4397C1.72393 16.2713 1.32779 16.3507 1.32779 16.5702C1.32779 16.6373 1.36507 16.686 1.4491 16.729C1.5906 16.8013 1.60087 16.8828 1.48954 17.049C1.3768 17.2175 1.3859 17.3656 1.51522 17.4662C1.72364 17.6284 2.01868 17.5391 2.1732 17.2673Z" fill="#71727491"/>
<path fill-rule="evenodd" clip-rule="evenodd" d="M8.33834 9.30924C7.97376 9.42054 7.61934 9.8046 7.50964 10.2073C7.44271 10.453 7.48069 10.8839 7.58093 11.017C7.74288 11.232 7.8995 11.2886 8.32358 11.2856C9.15386 11.2799 9.87566 10.9259 9.95958 10.4835C10.0284 10.1208 9.71135 9.61817 9.27469 9.3975C9.04937 9.28368 8.57018 9.23853 8.33834 9.30924ZM9.30894 10.0636C9.43698 9.88277 9.38096 9.68734 9.16321 9.55517C8.74851 9.30349 8.12138 9.51176 8.12138 9.90113C8.12138 10.0949 8.44842 10.3064 8.74818 10.3064C8.94771 10.3064 9.22075 10.1882 9.30894 10.0636Z" fill="#71727491"/>
</g>
</svg>
