<svg width="16" height="16" viewBox="0 0 16 16" fill="none" xmlns="http://www.w3.org/2000/svg">
<path d="M10.8358 5.16372C10.1162 4.44413 9.10031 3.97852 7.99976 3.97852C6.89921 3.97852 5.88331 4.42297 5.16372 5.16372C4.44413 5.88331 3.97852 6.89921 3.97852 7.99976C3.97852 9.10031 4.44413 10.1162 5.16372 10.8358C5.88331 11.5554 6.89921 12.021 7.99976 12.021C9.10031 12.021 10.1162 11.5765 10.8358 10.8358C11.5554 10.1162 12.021 9.10031 12.021 7.99976C12.021 6.89921 11.5765 5.88331 10.8358 5.16372ZM10.0739 10.0739C9.54476 10.603 8.80401 10.9204 7.99976 10.9204C7.19551 10.9204 6.45475 10.603 5.92564 10.0739C5.39653 9.54476 5.07907 8.80401 5.07907 7.99976C5.07907 7.19551 5.39653 6.45475 5.92564 5.92564C6.45475 5.39653 7.19551 5.07907 7.99976 5.07907C8.80401 5.07907 9.54476 5.39653 10.0739 5.92564C10.603 6.45475 10.9204 7.19551 10.9204 7.99976C10.9204 8.80401 10.603 9.54476 10.0739 10.0739Z" fill="#828281"/>
<path d="M15.45 7.4502H13.8203C13.524 7.4502 13.27 7.70417 13.27 8.00047C13.27 8.29677 13.524 8.55075 13.8203 8.55075H15.45C15.7463 8.55075 16.0002 8.29677 16.0002 8.00047C16.0002 7.70417 15.7463 7.4502 15.45 7.4502Z" fill="#828281"/>
<path d="M7.99998 13.2695C7.70368 13.2695 7.44971 13.5235 7.44971 13.8198V15.4495C7.44971 15.7458 7.70368 15.9997 7.99998 15.9997C8.29628 15.9997 8.55026 15.7458 8.55026 15.4495V13.8198C8.55026 13.5235 8.29628 13.2695 7.99998 13.2695Z" fill="#828281"/>
<path d="M13.6516 12.8892L12.4875 11.7251C12.2971 11.5135 11.9373 11.5135 11.7256 11.7251C11.514 11.9368 11.514 12.2754 11.7256 12.4871L12.8897 13.6511C13.1013 13.8627 13.4399 13.8627 13.6516 13.6511C13.8632 13.4395 13.8632 13.1008 13.6516 12.8892Z" fill="#828281"/>
<path d="M7.99998 0C7.70368 0 7.44971 0.253973 7.44971 0.550275V2.17994C7.44971 2.47624 7.70368 2.73021 7.99998 2.73021C8.29628 2.73021 8.55026 2.47624 8.55026 2.17994V0.550275C8.55026 0.253973 8.29628 0 7.99998 0Z" fill="#828281"/>
<path d="M13.6726 2.34916C13.4609 2.13752 13.1223 2.13752 12.9107 2.34916L11.7466 3.51321C11.535 3.72485 11.535 4.06348 11.7466 4.27513C11.9371 4.48677 12.2969 4.48677 12.5085 4.27513L13.6726 3.11108C13.8842 2.89944 13.8842 2.56081 13.6726 2.34916Z" fill="#828281"/>
<path d="M2.17994 7.4502H0.550275C0.253973 7.4502 0 7.70417 0 8.00047C0 8.29677 0.232809 8.55075 0.550275 8.55075H2.17994C2.47624 8.55075 2.73021 8.29677 2.73021 8.00047C2.73021 7.70417 2.47624 7.4502 2.17994 7.4502Z" fill="#828281"/>
<path d="M4.25462 11.7251C4.06414 11.5135 3.70434 11.5135 3.4927 11.7251L2.32866 12.8892C2.11701 13.1008 2.11701 13.4395 2.32866 13.6511C2.5403 13.8627 2.87893 13.8627 3.09057 13.6511L4.25462 12.4871C4.46626 12.2754 4.46626 11.9368 4.25462 11.7251Z" fill="#828281"/>
<path d="M4.25462 3.51321L3.09057 2.34916C2.87893 2.13752 2.5403 2.13752 2.32866 2.34916C2.11701 2.56081 2.11701 2.89944 2.32866 3.11108L3.4927 4.27513C3.70434 4.48677 4.04297 4.48677 4.25462 4.27513C4.46626 4.06348 4.46626 3.72485 4.25462 3.51321Z" fill="#828281"/>
</svg>
